# xmcd CD database file
#
# Track frame offsets:
#	150
#	19125
#	39601
#	58726
#
# Disc length: 1049 seconds
#
# Revision: 0
# Processed by: cddbd v1.5PL3 Copyright (c) Steve Scherf et al.
# Submitted via: CDex 1.51
#
DISCID=2f041704
DTITLE=Maria - Wild Cherry
DYEAR=2004
DGENRE=Vocal
TTITLE0=Wild Cherry
TTITLE1=Stichin' Up
TTITLE2=Wild Cherry(Instrumental)
TTITLE3=Stichin' Up(Instrumental)
EXTD=YEAR: 2004
EXTT0=
EXTT1=
EXTT2=
EXTT3=
PLAYORDER=
